<?xml version="1.0" encoding="utf-8"?>
<!-- Generator: Adobe Illustrator 23.0.3, SVG Export Plug-In . SVG Version: 6.00 Build 0)  -->
<svg version="1.1" id="Icons" xmlns="http://www.w3.org/2000/svg" xmlns:xlink="http://www.w3.org/1999/xlink" x="0px" y="0px"
	 viewBox="0 0 32 32" style="enable-background:new 0 0 32 32;" xml:space="preserve">
<style type="text/css">
	.st0{fill:none;stroke:#38A3A5;stroke-width:2;stroke-linecap:round;stroke-linejoin:round;stroke-miterlimit:10;}
	.st1{fill:none;stroke:#38A3A5;stroke-width:2;stroke-linejoin:round;stroke-miterlimit:10;}
</style>
<path class="st0" d="M24,13H4l2-4.6C6.6,7,8,6,9.6,6h8.7c1.6,0,3,1,3.7,2.4L24,13z"/>
<path class="st0" d="M8,23H2v2c0,1.1,0.9,2,2,2h2c1.1,0,2-0.9,2-2V23z"/>
<line class="st0" x1="1" y1="12" x2="4.4" y2="12"/>
<line class="st0" x1="24" y1="12" x2="27" y2="12"/>
<line class="st0" x1="4" y1="18" x2="7" y2="18"/>
<circle class="st0" cx="24" cy="23" r="7"/>
<polyline class="st0" points="24,16 24,23 31,23 "/>
<path class="st0" d="M17.6,20.1c-0.3-0.7-1-1.1-1.8-1.1h-3.5c-0.8,0-1.5,0.4-1.8,1.1L9,23"/>
<path class="st0" d="M17,23H3c-1.1,0-2-0.9-2-2v-4c0-2.2,1.8-4,4-4h18c2.1,0,3.8,1.6,4,3.7"/>
</svg>
