<svg width="82" height="73" viewBox="0 0 82 73" fill="none" xmlns="http://www.w3.org/2000/svg">
<path d="M41.7917 28.3613H39.6972C38.1023 28.3613 36.8048 29.5165 36.8048 30.9363V45.3217C36.8048 46.7416 38.1024 47.8968 39.6972 47.8968H41.7917C43.3867 47.8968 44.6841 46.7416 44.6841 45.3217V30.9363C44.6841 29.5164 43.3867 28.3613 41.7917 28.3613ZM42.285 45.3217C42.285 45.5639 42.0636 45.761 41.7917 45.761H39.6972C39.4252 45.761 39.204 45.5639 39.204 45.3217V30.9363C39.204 30.6941 39.4253 30.4972 39.6972 30.4972H41.7917C42.0638 30.4972 42.285 30.6942 42.285 30.9363V45.3217Z" fill="#22577A"/>
<path d="M41.0361 49.17C38.7428 49.17 36.8771 50.831 36.8771 52.8726C36.8771 54.9142 38.7428 56.5751 41.0361 56.5751C43.3294 56.5751 45.1951 54.9142 45.1951 52.8726C45.1951 50.831 43.3294 49.17 41.0361 49.17ZM41.0361 54.4393C40.0657 54.4393 39.2762 53.7365 39.2762 52.8726C39.2762 52.0087 40.0657 51.3059 41.0361 51.3059C42.0065 51.3059 42.796 52.0087 42.796 52.8726C42.796 53.7365 42.0065 54.4393 41.0361 54.4393Z" fill="#22577A"/>
<path d="M81.5747 64.2915L43.7164 5.91616C43.1494 5.0419 42.134 4.5199 41 4.5199C39.866 4.5199 38.8505 5.0419 38.2835 5.91616L24.0617 27.8454C23.7305 28.3561 23.9271 29.0092 24.5008 29.3041C25.0744 29.599 25.808 29.424 26.1394 28.9133L40.3611 6.98408C40.5534 6.68777 40.8718 6.65573 41 6.65573C41.1279 6.65573 41.4465 6.68777 41.6388 6.98408L79.497 65.3594C79.6892 65.6558 79.561 65.9173 79.4972 66.016C79.4332 66.1147 79.2427 66.3444 78.8583 66.3444H3.14174C2.75739 66.3444 2.5669 66.1148 2.50292 66.016C2.43894 65.9173 2.31067 65.6556 2.50292 65.3593L23.6958 32.6809C24.027 32.1701 23.8305 31.517 23.2568 31.2221C22.6829 30.9271 21.9494 31.1022 21.6181 31.613L0.425251 64.2914C-0.14175 65.1657 -0.14175 66.2097 0.425251 67.0839C0.992251 67.9582 2.00773 68.4802 3.14174 68.4802H78.8582C79.9922 68.4802 81.0077 67.9582 81.5747 67.0839C82.1417 66.2097 82.1417 65.1658 81.5747 64.2915Z" fill="#22577A"/>
<path d="M32.1843 61.8783C32.1843 62.4681 32.7214 62.9462 33.3839 62.9462H71.4465C71.8752 62.9462 72.271 62.7426 72.4854 62.4123C72.6997 62.0819 72.6997 61.6747 72.4854 61.3443L42.0388 14.3971C41.8244 14.0668 41.4286 13.8632 40.9999 13.8632C40.5713 13.8632 40.1754 14.0668 39.9611 14.3971L9.5145 61.3443C9.30018 61.6747 9.30018 62.0819 9.5145 62.4123C9.72883 62.7426 10.1247 62.9462 10.5533 62.9462H28.5856C29.2481 62.9462 29.7851 62.4681 29.7851 61.8783C29.7851 61.2885 29.2481 60.8104 28.5856 60.8104H12.631L40.9999 17.0669L69.3688 60.8104H33.3839C32.7214 60.8104 32.1843 61.2885 32.1843 61.8783Z" fill="#22577A"/>
</svg>
