<svg width="119" height="108" viewBox="0 0 119 108" fill="none" xmlns="http://www.w3.org/2000/svg">
<path d="M105.538 0H13.4623C6.03843 0 0 5.48026 0 12.2179V95.7821C0 102.52 6.03843 108 13.4623 108H105.538C112.962 108 119 102.52 119 95.7821V12.2179C119 5.48026 112.962 0 105.538 0ZM111.848 95.7821C111.848 98.9404 109.018 101.51 105.538 101.51H13.4623C9.98234 101.51 7.15151 98.9404 7.15151 95.7821V12.2179C7.15151 9.0596 9.98234 6.49045 13.4623 6.49045H105.538C109.018 6.49045 111.848 9.0596 111.848 12.2179V95.7821Z" fill="#22577A"/>
<path d="M101.6 12.5467H17.3999C15.4252 12.5467 13.8246 13.9993 13.8246 15.7915V92.2085C13.8246 94.0007 15.4252 95.4542 17.3999 95.4542H101.6C103.575 95.4542 105.176 94.0007 105.176 92.2085V15.7915C105.175 13.9993 103.575 12.5467 101.6 12.5467ZM98.0248 88.9637H20.9752V19.0363H98.0248V88.9637Z" fill="#22577A"/>
<path d="M51.8955 55.5944H59.5C65.6646 55.5944 70.6808 51.0428 70.6808 45.4471C70.6808 39.8524 65.6646 35.3007 59.5 35.3007H51.8955C49.9208 35.3007 48.3192 36.7534 48.3192 38.5455V52.3496C48.3192 54.1417 49.9208 55.5944 51.8955 55.5944ZM55.4708 41.7903H59.5C61.7216 41.7903 63.5293 43.4309 63.5293 45.4471C63.5293 47.4642 61.7216 49.1048 59.5 49.1048H55.4708V41.7903Z" fill="#22577A"/>
<path d="M39.7714 83.7026H51.8954C53.8701 83.7026 55.4707 82.25 55.4707 80.457V66.5977H59.5C72.3504 66.5977 82.8048 57.1097 82.8048 45.4471C82.8048 33.7854 72.3504 24.2974 59.5 24.2974H39.7714C37.7967 24.2974 36.1952 25.75 36.1952 27.5422V80.457C36.1952 82.25 37.7967 83.7026 39.7714 83.7026ZM43.3467 30.7878H59.5C68.4065 30.7878 75.6533 37.364 75.6533 45.448C75.6533 53.5312 68.4074 60.1081 59.5 60.1081H51.8954C49.9208 60.1081 48.3192 61.5608 48.3192 63.3529V77.2122H43.3467V30.7878Z" fill="#22577A"/>
</svg>
