<svg width="200" height="200" viewBox="0 0 200 200" fill="none" xmlns="http://www.w3.org/2000/svg">
<path d="M181.25 66.651C181.25 70.0676 178.417 72.901 175 72.901H25C21.5833 72.901 18.75 70.0676 18.75 66.651C18.75 63.2344 21.5833 60.401 25 60.401H33.5L36.6667 45.3177C39.6667 30.7344 45.9167 17.3176 70.75 17.3176H129.25C154.083 17.3176 160.333 30.7344 163.333 45.3177L166.5 60.401H175C178.417 60.401 181.25 63.2344 181.25 66.651Z" fill="#38A3A5"/>
<path d="M184.847 113.833C183.597 100.083 179.929 85.4167 153.179 85.4167H46.8462C20.0962 85.4167 16.5129 100.083 15.1795 113.833L10.5129 164.583C9.92955 170.917 12.0129 177.25 16.3462 182C20.7629 186.833 27.0129 189.583 33.6796 189.583H49.3462C62.8462 189.583 65.4296 181.833 67.0962 176.75L68.7629 171.75C70.6796 166 71.1796 164.583 78.6796 164.583H121.347C128.847 164.583 129.097 165.417 131.263 171.75L132.93 176.75C134.597 181.833 137.18 189.583 150.68 189.583H166.346C172.93 189.583 179.263 186.833 183.68 182C188.013 177.25 190.097 170.917 189.513 164.583L184.847 113.833ZM75.0129 131.25H50.0129C46.5962 131.25 43.7629 128.417 43.7629 125C43.7629 121.583 46.5962 118.75 50.0129 118.75H75.0129C78.4296 118.75 81.2629 121.583 81.2629 125C81.2629 128.417 78.4296 131.25 75.0129 131.25ZM150.013 131.25H125.013C121.597 131.25 118.763 128.417 118.763 125C118.763 121.583 121.597 118.75 125.013 118.75H150.013C153.43 118.75 156.263 121.583 156.263 125C156.263 128.417 153.43 131.25 150.013 131.25Z" fill="#38A3A5"/>
</svg>
