<?xml version="1.0" encoding="iso-8859-1"?>
<!-- Generator: Adobe Illustrator 19.0.0, SVG Export Plug-In . SVG Version: 6.00 Build 0)  -->
<svg version="1.1" id="Capa_1" xmlns="http://www.w3.org/2000/svg" xmlns:xlink="http://www.w3.org/1999/xlink" x="0px" y="0px"
	 viewBox="0 0 512 512" style="enable-background:new 0 0 512 512;" xml:space="preserve">
<g>
	<g>
		<path d="M450.836,325.612h-11.297c-0.016,0-0.03,0-0.046,0h-17.854l-32.875-77.44c-8.002-18.849-26.404-31.029-46.882-31.029
			H208.801c-20.478,0-38.88,12.18-46.882,31.029l-32.875,77.44h-13.879c-7.36,0-14.42,1.308-20.961,3.701V191H156
			c13.233,0,24-10.767,24-24V51c0-13.233-10.767-24-24-24H24C10.767,27,0,37.767,0,51v116c0,13.233,10.767,24,24,24h50.203v150.397
			C61.805,352.598,54,368.792,54,386.777v58.328c0,2.655,1.056,5.201,2.935,7.077c1.875,1.872,4.416,2.923,7.065,2.923
			c0.005,0,0.011,0,0.016,0l10.188-0.016V465H10c-5.522,0-10,4.477-10,10s4.478,10,10,10h196.986c5.522,0,10-4.477,10-10
			s-4.478-10-10-10h-13.161c1.792-3.094,3.192-6.442,4.107-9.985h76.137c0.418,0.053,0.841,0.09,1.273,0.09s0.855-0.037,1.273-0.09
			h105.811c0.916,3.543,2.315,6.892,4.107,9.985H315c-5.522,0-10,4.477-10,10s4.478,10,10,10h157.303c5.522,0,10-4.477,10-10
			s-4.478-10-10-10h-16.516c1.791-3.091,3.189-6.436,4.104-9.975l42.09,0.08c0.006,0,0.012,0,0.019,0
			c2.648,0,5.189-1.051,7.064-2.922c1.879-1.876,2.936-4.422,2.936-7.078v-58.328C512,353.051,484.562,325.612,450.836,325.612z
			 M24,171c-2.206,0-4-1.794-4-4V51c0-2.206,1.794-4,4-4h132c2.206,0,4,1.794,4,4v116c0,2.206-1.794,4-4,4H24z M74,386.777
			c0-4.362,0.688-8.564,1.95-12.512h18.48v20.706H74V386.777z M94.203,465v-9.943l26.261-0.041c0.915,3.543,2.314,6.891,4.107,9.984
			H94.203z M159.487,465h-0.578c-10.894-0.157-19.711-9.055-19.711-19.985c0-11.028,8.972-20,20-20s20,8.972,20,20
			C179.198,455.945,170.381,464.843,159.487,465z M265.342,435.015h-67.409c-4.452-17.233-20.13-30-38.734-30
			s-34.283,12.768-38.734,30.001L74,435.089v-20.118h30.43c5.522,0,10-4.477,10-10v-40.706c0-5.523-4.478-10-10-10H89.961
			c6.97-5.416,15.713-8.652,25.203-8.652h20.498h129.68V435.015z M265.342,325.613h-58.866l28.818-28.817
			c3.905-3.905,3.905-10.237,0-14.142c-3.905-3.905-10.235-3.905-14.143,0l-42.961,42.96h-27.419l29.558-69.626
			c4.859-11.448,16.035-18.844,28.472-18.844h56.541V325.613z M487.041,367.203h-26.857l-6.875-21.51
			C467.881,346.561,480.438,355.038,487.041,367.203z M285.342,237.143h54.094l-31.302,31.301c-3.905,3.905-3.905,10.237,0,14.142
			c1.953,1.953,4.512,2.929,7.071,2.929s5.118-0.977,7.071-2.929l38.781-38.781c3.986,3.151,7.22,7.292,9.296,12.181l29.558,69.626
			H285.342V237.143z M421.449,465h-0.578c-10.894-0.157-19.711-9.055-19.711-19.985c0-11.028,8.972-20,20-20
			c11.028,0,20,8.972,20,20C441.16,455.945,432.343,464.843,421.449,465z M492,435.086l-32.103-0.061
			c-4.448-17.238-20.13-30.01-38.737-30.01c-18.604,0-34.282,12.767-38.734,30h-97.084v-89.402h129.679h17.264l11.072,34.636
			c1.324,4.143,5.176,6.955,9.525,6.955H492V435.086z" fill="#38A3A5"/>
	</g>
</g>
<g>
	<g>
		<path d="M230.309,374.551c-5.522,0-10,4.477-10,10v0.134c0,5.523,4.477,10,10,10c5.522,0,10-4.477,10-10v-0.134
			C240.309,379.028,235.831,374.551,230.309,374.551z" fill="#38A3A5"/>
	</g>
</g>
<g>
	<g>
		<path d="M98,64.666H78c-5.522,0-10,4.477-10,10v20v20v28.667c0,5.523,4.478,10,10,10c5.522,0,10-4.477,10-10v-18.667h10
			c16.542,0,30-13.458,30-30C128,78.124,114.542,64.666,98,64.666z M98,104.667H88v-10v-10h10c5.514,0,10,4.486,10,10
			S103.514,104.667,98,104.667z" fill="#38A3A5"/>
	</g>
</g>
<g>
	<g>
		<path d="M282.389,467.927c-1.859-1.86-4.439-2.93-7.07-2.93c-2.64,0-5.21,1.07-7.069,2.93c-1.86,1.86-2.931,4.44-2.931,7.07
			c0,2.64,1.07,5.21,2.931,7.07c1.859,1.86,4.439,2.93,7.069,2.93c2.631,0,5.211-1.07,7.07-2.93c1.86-1.86,2.93-4.44,2.93-7.07
			S284.25,469.787,282.389,467.927z" fill="#38A3A5"/>
	</g>
</g>
<g>
</g>
<g>
</g>
<g>
</g>
<g>
</g>
<g>
</g>
<g>
</g>
<g>
</g>
<g>
</g>
<g>
</g>
<g>
</g>
<g>
</g>
<g>
</g>
<g>
</g>
<g>
</g>
<g>
</g>
</svg>
