<svg width="50" height="50" viewBox="0 0 50 50" fill="none" xmlns="http://www.w3.org/2000/svg">
<path d="M23.9584 43.75C34.889 43.75 43.7501 34.8889 43.7501 23.9583C43.7501 13.0277 34.889 4.16666 23.9584 4.16666C13.0278 4.16666 4.16675 13.0277 4.16675 23.9583C4.16675 34.8889 13.0278 43.75 23.9584 43.75Z" fill="#22577A"/>
<path d="M44.3761 45.8304C44.0011 45.8304 43.6261 45.6846 43.3552 45.4138L39.4802 41.5388C38.9177 40.9763 38.9177 40.0596 39.4802 39.4763C40.0427 38.9138 40.9594 38.9138 41.5427 39.4763L45.4177 43.3513C45.9802 43.9138 45.9802 44.8304 45.4177 45.4138C45.1261 45.6846 44.7511 45.8304 44.3761 45.8304Z" fill="#22577A"/>
</svg>
