<svg width="40" height="40" viewBox="0 0 40 40" fill="none" xmlns="http://www.w3.org/2000/svg">
<path d="M18.3938 0.717634C15.9174 1.79643 15.329 5.08243 17.2658 7.01923C20.0121 9.79003 24.5233 7.31323 23.8125 3.43923C23.3709 1.13443 20.6005 -0.263165 18.3938 0.717634Z" fill="#22577A"/>
<path d="M18.3937 16.4104C15.9173 17.4892 15.3285 20.7748 17.2657 22.712C20.0121 25.4828 24.5233 23.006 23.8125 19.132C23.3709 16.8272 20.6005 15.4296 18.3937 16.4104Z" fill="#22577A"/>
<path d="M18.394 32.1032C15.9176 33.182 15.3292 36.4676 17.266 38.4048C18.8596 39.9984 21.1156 39.9984 22.7096 38.4048C25.75 35.364 22.3416 30.3868 18.394 32.1032Z" fill="#22577A"/>
</svg>
