<svg width="100" height="100" viewBox="0 0 100 100" fill="none" xmlns="http://www.w3.org/2000/svg">
<path d="M56.25 21.875H68.75L84.375 68.75" stroke="#22577A" stroke-width="2" stroke-miterlimit="10" stroke-linecap="round" stroke-linejoin="round"/>
<path d="M84.375 81.25C91.2786 81.25 96.875 75.6536 96.875 68.75C96.875 61.8464 91.2786 56.25 84.375 56.25C77.4714 56.25 71.875 61.8464 71.875 68.75C71.875 75.6536 77.4714 81.25 84.375 81.25Z" stroke="#22577A" stroke-width="2" stroke-miterlimit="10" stroke-linecap="round" stroke-linejoin="round"/>
<path d="M15.625 81.25C22.5286 81.25 28.125 75.6536 28.125 68.75C28.125 61.8464 22.5286 56.25 15.625 56.25C8.72144 56.25 3.125 61.8464 3.125 68.75C3.125 75.6536 8.72144 81.25 15.625 81.25Z" stroke="#22577A" stroke-width="2" stroke-miterlimit="10" stroke-linecap="round" stroke-linejoin="round"/>
<path d="M15.625 43.75C29.375 43.75 40.625 55 40.625 68.75H59.375C59.375 55 70.625 43.75 84.375 43.75C86.875 43.75 89.6875 44.0625 91.875 45" stroke="#22577A" stroke-width="2" stroke-miterlimit="10" stroke-linecap="round" stroke-linejoin="round"/>
<path d="M71.875 34.375H53.125L51.875 36.25C46.875 44.375 37.5 48.75 28.125 46.875" stroke="#22577A" stroke-width="2" stroke-miterlimit="10" stroke-linecap="round" stroke-linejoin="round"/>
</svg>
