<svg width="112" height="104" viewBox="0 0 112 104" fill="none" xmlns="http://www.w3.org/2000/svg">
<path d="M96.8422 37.087L85.0715 31.6224C84.094 27.9543 81.0905 16.684 80.1129 13.0175C79.0157 8.94067 75.0894 6.09375 70.564 6.09375H41.436C36.9106 6.09375 32.9843 8.94067 31.8845 13.0246C30.9095 16.6832 27.906 27.9551 26.9285 31.6224L15.1578 37.0878C13.5369 37.84 12.8798 39.6705 13.6907 41.1757C14.5007 42.6801 16.4712 43.2902 18.0922 42.538L26.4687 38.6485V88.7656C26.4687 93.8057 30.8848 97.9062 36.3125 97.9062H75.6875C81.1152 97.9062 85.5312 93.8057 85.5312 88.7656C85.5312 86.4908 85.5312 40.4933 85.5312 38.6485L93.9078 42.538C95.5288 43.2902 97.4993 42.6801 98.3093 41.1757C99.1202 39.6705 98.4631 37.84 96.8422 37.087ZM46.1562 73.3281V55.0469H65.8438V73.3281H46.1562ZM35.6204 24.375H42.875C48.3027 24.375 52.7188 20.2744 52.7188 15.2344V12.1875H59.2812V15.2344C59.2812 20.2744 63.6973 24.375 69.125 24.375H76.3796L78.0579 30.6719H33.9421L35.6204 24.375ZM33.0312 43.7822L39.5938 52.9228V61.1406H33.0312V43.7822ZM33.0312 67.2344H39.5938V74.4921L33.0312 77.539V67.2344ZM72.4062 67.2344H78.9688V77.539L72.4062 74.4921V67.2344ZM78.9688 61.1406H72.4062V52.9228L78.9688 43.7822V61.1406ZM67.369 48.9531H44.631L35.881 36.7656H76.119L67.369 48.9531ZM73.7452 14.4885L74.7561 18.2812H69.125C67.316 18.2812 65.8438 16.9141 65.8438 15.2344V12.1875H70.564C72.0721 12.1875 73.3812 13.1365 73.7452 14.4885ZM41.436 12.1875H46.1562V15.2344C46.1562 16.9141 44.684 18.2812 42.875 18.2812H37.2439L38.2531 14.4957C38.6188 13.1365 39.9279 12.1875 41.436 12.1875ZM75.6875 91.8125H36.3125C34.5035 91.8125 33.0312 90.4454 33.0312 88.7656V84.3516L43.6492 79.4219H68.3508L78.9688 84.3516V88.7656C78.9688 90.4454 77.4965 91.8125 75.6875 91.8125Z" fill="#22577A"/>
<path d="M3.28125 0C1.46887 0 0 1.36395 0 3.04688V100.953C0 102.636 1.46887 104 3.28125 104C5.09363 104 6.5625 102.636 6.5625 100.953V3.04688C6.5625 1.36395 5.09363 0 3.28125 0Z" fill="#22577A"/>
<path d="M108.719 0C106.906 0 105.438 1.36395 105.438 3.04688V100.953C105.438 102.636 106.906 104 108.719 104C110.531 104 112 102.636 112 100.953V3.04688C112 1.36395 110.531 0 108.719 0Z" fill="#22577A"/>
</svg>
