<svg width="64" height="64" viewBox="0 0 64 64" fill="none" xmlns="http://www.w3.org/2000/svg">
<g id="24 / basic / user">
<path id="icon" fill-rule="evenodd" clip-rule="evenodd" d="M32 61.3333C15.7996 61.3333 2.66666 48.2003 2.66666 32C2.66666 15.7996 15.7996 2.66663 32 2.66663C48.2003 2.66663 61.3333 15.7996 61.3333 32C61.3333 48.2003 48.2003 61.3333 32 61.3333ZM51.732 45.6657C54.423 41.7875 56 37.0779 56 32C56 18.7451 45.2548 7.99996 32 7.99996C18.7452 7.99996 7.99999 18.7451 7.99999 32C7.99999 37.0779 9.57701 41.7875 12.268 45.6657C15.2692 41.7015 22.3216 40 32 40C41.6784 40 48.7308 41.7015 51.732 45.6657ZM47.9058 49.9727C47.1253 47.1662 41.5183 45.3333 32 45.3333C22.4816 45.3333 16.8747 47.1662 16.0942 49.9727C20.3288 53.7231 25.8985 56 32 56C38.1015 56 43.6712 53.7231 47.9058 49.9727ZM32 16C25.5443 16 21.3333 20.682 21.3333 26.6666C21.3333 35.8063 26.029 40 32 40C37.9149 40 42.6667 35.9456 42.6667 27.2C42.6667 21.1242 38.4378 16 32 16ZM26.6667 26.6666C26.6667 32.718 28.8486 34.6666 32 34.6666C35.1405 34.6666 37.3333 32.7957 37.3333 27.2C37.3333 23.8677 35.2417 21.3333 32 21.3333C28.6233 21.3333 26.6667 23.5088 26.6667 26.6666Z" fill="#22577A"/>
</g>
</svg>
