<svg width="82" height="65" viewBox="0 0 82 65" fill="none" xmlns="http://www.w3.org/2000/svg">
    <path d="M41.7917 24.3613H39.6972C38.1023 24.3613 36.8048 25.5165 36.8048 26.9363V41.3217C36.8048 42.7416 38.1024 43.8968 39.6972 43.8968H41.7917C43.3867 43.8968 44.6841 42.7416 44.6841 41.3217V26.9363C44.6841 25.5164 43.3867 24.3613 41.7917 24.3613ZM42.285 41.3217C42.285 41.5639 42.0636 41.761 41.7917 41.761H39.6972C39.4252 41.761 39.204 41.5639 39.204 41.3217V26.9363C39.204 26.6941 39.4253 26.4972 39.6972 26.4972H41.7917C42.0638 26.4972 42.285 26.6942 42.285 26.9363V41.3217Z" fill="#22577A"/>
    <path d="M41.0361 45.17C38.7428 45.17 36.8771 46.831 36.8771 48.8726C36.8771 50.9142 38.7428 52.5751 41.0361 52.5751C43.3294 52.5751 45.1951 50.9142 45.1951 48.8726C45.1951 46.831 43.3294 45.17 41.0361 45.17ZM41.0361 50.4393C40.0657 50.4393 39.2762 49.7365 39.2762 48.8726C39.2762 48.0087 40.0657 47.3059 41.0361 47.3059C42.0065 47.3059 42.796 48.0087 42.796 48.8726C42.796 49.7365 42.0065 50.4393 41.0361 50.4393Z" fill="#22577A"/>
    <path d="M81.5747 60.2915L43.7164 1.91616C43.1494 1.0419 42.134 0.519897 41 0.519897C39.866 0.519897 38.8505 1.0419 38.2835 1.91616L24.0617 23.8454C23.7305 24.3561 23.9271 25.0092 24.5008 25.3041C25.0744 25.599 25.808 25.424 26.1394 24.9133L40.3611 2.98408C40.5534 2.68777 40.8718 2.65573 41 2.65573C41.1279 2.65573 41.4465 2.68777 41.6388 2.98408L79.497 61.3594C79.6892 61.6558 79.561 61.9173 79.4972 62.016C79.4332 62.1147 79.2427 62.3444 78.8583 62.3444H3.14174C2.75739 62.3444 2.5669 62.1148 2.50292 62.016C2.43894 61.9173 2.31067 61.6556 2.50292 61.3593L23.6958 28.6809C24.027 28.1701 23.8305 27.517 23.2568 27.2221C22.6829 26.9271 21.9494 27.1022 21.6181 27.613L0.425251 60.2914C-0.14175 61.1657 -0.14175 62.2097 0.425251 63.0839C0.992251 63.9582 2.00773 64.4802 3.14174 64.4802H78.8582C79.9922 64.4802 81.0077 63.9582 81.5747 63.0839C82.1417 62.2097 82.1417 61.1658 81.5747 60.2915Z" fill="#22577A"/>
    <path d="M32.1843 57.8783C32.1843 58.4681 32.7214 58.9462 33.3839 58.9462H71.4465C71.8752 58.9462 72.271 58.7426 72.4854 58.4123C72.6997 58.0819 72.6997 57.6747 72.4854 57.3443L42.0388 10.3971C41.8244 10.0668 41.4286 9.86316 40.9999 9.86316C40.5713 9.86316 40.1754 10.0668 39.9611 10.3971L9.5145 57.3443C9.30018 57.6747 9.30018 58.0819 9.5145 58.4123C9.72883 58.7426 10.1247 58.9462 10.5533 58.9462H28.5856C29.2481 58.9462 29.7851 58.4681 29.7851 57.8783C29.7851 57.2885 29.2481 56.8104 28.5856 56.8104H12.631L40.9999 13.0669L69.3688 56.8104H33.3839C32.7214 56.8104 32.1843 57.2885 32.1843 57.8783Z" fill="#22577A"/>
    </svg>