<svg width="50" height="50" viewBox="0 0 50 50" fill="none" xmlns="http://www.w3.org/2000/svg">
<path d="M25 4.16666C13.5208 4.16666 4.16663 13.5208 4.16663 25C4.16663 36.4792 13.5208 45.8333 25 45.8333C36.4791 45.8333 45.8333 36.4792 45.8333 25C45.8333 13.5208 36.4791 4.16666 25 4.16666ZM33.3333 26.5625H26.5625V33.3333C26.5625 34.1875 25.8541 34.8958 25 34.8958C24.1458 34.8958 23.4375 34.1875 23.4375 33.3333V26.5625H16.6666C15.8125 26.5625 15.1041 25.8542 15.1041 25C15.1041 24.1458 15.8125 23.4375 16.6666 23.4375H23.4375V16.6667C23.4375 15.8125 24.1458 15.1042 25 15.1042C25.8541 15.1042 26.5625 15.8125 26.5625 16.6667V23.4375H33.3333C34.1875 23.4375 34.8958 24.1458 34.8958 25C34.8958 25.8542 34.1875 26.5625 33.3333 26.5625Z" fill="#22577A"/>
</svg>
